<?xml version="1.0" encoding="utf-8"?>
<!-- Generator: Adobe Illustrator 28.0.0, SVG Export Plug-In . SVG Version: 6.00 Build 0)  -->
<svg version="1.1" id="Capa_1" xmlns="http://www.w3.org/2000/svg" xmlns:xlink="http://www.w3.org/1999/xlink" x="0px" y="0px"
	 viewBox="0 0 1500 909.86" style="enable-background:new 0 0 1500 909.86;" xml:space="preserve">
<style type="text/css">
	.st0{fill:#EA881A;}
	.st1{fill:none;stroke:#EA881A;stroke-width:4;stroke-miterlimit:10;}
	.st2{fill:#787474;}
	.st3{fill:#979697;}
	.st4{fill:#C3C2C3;}
	.st5{fill:#1D1D1B;stroke:#1D1D1B;stroke-width:0.5;stroke-miterlimit:10;}
	.st6{font-family:'JosefinSans-Light';}
	.st7{font-size:37.8133px;}
</style>
<g>
	<path class="st0" d="M425.08,663.4v-3.01v-8.63c0-8.5-0.13-18.76-0.38-30.76v-92.67v-93.04v-28.51h-41.64h-21.76h-6h-2.25v-45.02
		h2.25h6h21.76h65.66h66.03h21.76h6h2.25v45.02h-2.25h-6h-21.76h-45.02v28.51v93.04V621c0.24,12.01,0.37,22.27,0.37,30.76v8.63v3.01
		H425.08z"/>
	<path class="st0" d="M1085.87,667.52h-0.37h-0.75h-2.62c-2,0.25-5.38,0.38-10.13,0.38h-29.64c-20.26,0-34.64-0.25-43.15-0.75
		c-51.53-5-89.42-25.51-113.68-61.53c-31.77-47.02-37.65-94.92-17.63-143.7c11.75-29.51,27.63-52.65,47.65-69.41
		c23-19,51.14-29.76,84.41-32.27c9-0.49,22.38-0.75,40.15-0.75h40.14h1.5h0.37h0.37v43.52h-0.37h-0.37h-1.5h-39.77
		c-18.26,0-30.64,0.25-37.14,0.75c-23.26,1.76-42.53,8.63-57.78,20.64c-15.26,12-27.76,29.89-37.52,53.65
		c-14.25,34.77-9.75,69.16,13.51,103.18c8.26,11.76,17.88,20.77,28.89,27.01c14.25,8.51,31.89,13.64,52.9,15.38
		c6,0.51,19,0.75,39.02,0.75h29.26c4.75,0,8.13-0.13,10.13-0.38h2.62h0.75h0.38L1085.87,667.52z"/>
	<path class="st0" d="M1157.84,663.4v-3.38v-9.38c0-4.25,0.06-9.25,0.19-15.01c0.12-5.75,0.19-12.13,0.19-19.14V512.57V408.64V374.5
		v-9.38v-3.37h45.02v3.37v9.38v34.14v103.93v103.93c0,7.01-0.06,13.38-0.18,19.14c-0.13,5.76-0.19,10.75-0.19,15.01v9.38v3.38
		H1157.84z M1248.27,476.93h1.13h3h10.88h33.39h33.4h2.25v-67.53v-34.14v-9.75v-3.38h45.02v3.38v9.75v34.14v103.93v103.55v34.14
		v9.75v3.38h-45.02v-3.38v-9.75v-34.14v-94.92h-2.25h-33.4h-33.39h-10.88h-3h-1.13V476.93z"/>
	<g>
		<path class="st0" d="M789.62,365.76c0,13.92,0,26.17,0,41.88c-22.76,0-45.43-0.55-68.07,0.12c-42.7,1.26-74.01,20.34-93.54,59.28
			c-19.69,39.26-17.78,76.54,6.7,112.65c19.19,28.31,47.47,40.19,80.44,41.5c24.28,0.96,48.64,0.19,74.88,0.19
			c0.82,13.82,1.54,26.07,2.43,40.98c-48.28-0.32-95.46,6.9-140.39-14.78c-56.54-27.28-89.63-94.31-77.01-157.36
			c14.16-70.71,69.32-121.48,136.19-124.29C736.88,364.86,762.6,365.76,789.62,365.76z"/>
		<path class="st0" d="M788.77,535.98c-13,0-25.16,0-38.7,0c0-13.02,0-25.79,0-39.58c12.98,0,25.09,0,38.7,0
			C788.77,509.6,788.77,522.21,788.77,535.98z"/>
	</g>
	<polyline class="st1" points="219.27,348.51 219.27,266.43 775.66,266.43 775.66,344.58 	"/>
	<polyline class="st1" points="775.66,676.26 775.66,753.5 219.27,753.66 219.27,676.63 	"/>
	<polyline class="st0" points="327.95,265.46 327.95,218.27 317.46,265.46 312.21,265.46 296.47,155.34 285.98,265.46 
		280.29,265.46 269.8,191.9 269.8,265.46 	"/>
	<rect x="118.89" y="627.15" class="st2" width="297.49" height="35.9"/>
	<rect x="118.89" y="539.51" class="st3" width="297.49" height="35.63"/>
	<rect x="118.89" y="451.61" class="st4" width="297.49" height="35.9"/>
	<path class="st0" d="M304.13,407.12H149.91h-21.76h-6h-2.25V362.1h2.25h6h21.76h178.22h66.03h21.76h6h2.25v45.02h-2.25h-6h-21.76
		h-45.02"/>
	<text transform="matrix(1 0 0 1 856.5676 745.6699)" class="st5 st6 st7">QUITO PUBLISHING HOUSE</text>
</g>
</svg>
